<svg width="22" height="28" viewBox="0 0 22 28" fill="none" xmlns="http://www.w3.org/2000/svg">
<path d="M3.28125 16.4583C2.41101 16.4583 1.57641 16.7643 0.961056 17.3089C0.345702 17.8536 0 18.5924 0 19.3627V20.0404C0 22.5672 1.3125 24.397 3.39937 25.5452C5.42281 26.6586 8.11563 27.1078 10.9375 27.1078C13.7747 27.1078 16.4675 26.6605 18.4887 25.5452C20.5756 24.397 21.875 22.5633 21.875 20.0404V19.3627C21.875 18.5924 21.5293 17.8536 20.9139 17.3089C20.2986 16.7643 19.464 16.4583 18.5938 16.4583H3.28125Z" fill="url(#paint0_radial_121_1095)"/>
<path d="M3.28125 16.4583C2.41101 16.4583 1.57641 16.7643 0.961056 17.3089C0.345702 17.8536 0 18.5924 0 19.3627V20.0404C0 22.5672 1.3125 24.397 3.39937 25.5452C5.42281 26.6586 8.11563 27.1078 10.9375 27.1078C13.7747 27.1078 16.4675 26.6605 18.4887 25.5452C20.5756 24.397 21.875 22.5633 21.875 20.0404V19.3627C21.875 18.5924 21.5293 17.8536 20.9139 17.3089C20.2986 16.7643 19.464 16.4583 18.5938 16.4583H3.28125Z" fill="url(#paint1_linear_121_1095)"/>
<path d="M12.0312 0.968139C12.0312 0.711372 11.916 0.465123 11.7109 0.283561C11.5058 0.102 11.2276 0 10.9375 0C10.6474 0 10.3692 0.102 10.1641 0.283561C9.95898 0.465123 9.84375 0.711372 9.84375 0.968139V2.90442H12.0312V0.968139Z" fill="url(#paint2_linear_121_1095)"/>
<path d="M16.4062 1.93628C17.2765 1.93628 18.1111 2.24228 18.7264 2.78696C19.3418 3.33165 19.6875 4.0704 19.6875 4.8407V10.6495C19.6875 11.4198 19.3418 12.1586 18.7264 12.7033C18.1111 13.2479 17.2765 13.5539 16.4062 13.5539H5.46875C4.59851 13.5539 3.76391 13.2479 3.14856 12.7033C2.5332 12.1586 2.1875 11.4198 2.1875 10.6495V4.8407C2.1875 4.0704 2.5332 3.33165 3.14856 2.78696C3.76391 2.24228 4.59851 1.93628 5.46875 1.93628H16.4062Z" fill="url(#paint3_radial_121_1095)"/>
<path d="M14.2188 6.29297C13.7836 6.29297 13.3663 6.44597 13.0587 6.71831C12.751 6.99065 12.5781 7.36003 12.5781 7.74518C12.5781 8.13033 12.751 8.4997 13.0587 8.77204C13.3663 9.04439 13.7836 9.19739 14.2188 9.19739C14.6539 9.19739 15.0712 9.04439 15.3788 8.77204C15.6865 8.4997 15.8594 8.13033 15.8594 7.74518C15.8594 7.36003 15.6865 6.99065 15.3788 6.71831C15.0712 6.44597 14.6539 6.29297 14.2188 6.29297Z" fill="url(#paint4_linear_121_1095)"/>
<path d="M6.01562 7.74518C6.01562 7.36003 6.18848 6.99065 6.49615 6.71831C6.80383 6.44597 7.22113 6.29297 7.65625 6.29297C8.09137 6.29297 8.50867 6.44597 8.81635 6.71831C9.12402 6.99065 9.29688 7.36003 9.29688 7.74518C9.29688 8.13033 9.12402 8.4997 8.81635 8.77204C8.50867 9.04439 8.09137 9.19739 7.65625 9.19739C7.22113 9.19739 6.80383 9.04439 6.49615 8.77204C6.18848 8.4997 6.01563 8.13033 6.01562 7.74518Z" fill="url(#paint5_linear_121_1095)"/>
<defs>
<radialGradient id="paint0_radial_121_1095" cx="0" cy="0" r="1" gradientTransform="matrix(26.2395 14.9911 -28.1573 38.6146 -5.04831 13.1804)" gradientUnits="userSpaceOnUse">
<stop stop-color="#A7B2C5"/>
<stop offset="1" stop-color="#13A4EC"/>
</radialGradient>
<linearGradient id="paint1_linear_121_1095" x1="10.9375" y1="15.19" x2="15.6446" y2="33.2556" gradientUnits="userSpaceOnUse">
<stop stop-color="#94A3B8"/>
<stop offset="1" stop-color="#13A4EC"/>
</linearGradient>
<linearGradient id="paint2_linear_121_1095" x1="9.79344" y1="-1.2181e-08" x2="11.7845" y2="2.62037" gradientUnits="userSpaceOnUse">
<stop stop-color="#94A3B8"/>
<stop offset="0.716346" stop-color="#2B8CEE"/>
</linearGradient>
<radialGradient id="paint3_radial_121_1095" cx="0" cy="0" r="1" gradientTransform="matrix(20.8465 18.4524 -40.6931 36.0197 -1.70584 -3.5434)" gradientUnits="userSpaceOnUse">
<stop stop-color="#13A4EC"/>
<stop offset="0.535" stop-color="#94A3B8"/>
<stop offset="1" stop-color="#2B8CEE"/>
</radialGradient>
<linearGradient id="paint4_linear_121_1095" x1="13.3569" y1="6.40527" x2="15.4178" y2="10.4229" gradientUnits="userSpaceOnUse">
<stop offset="0.173077" stop-color="#FDFDFD"/>
<stop offset="1" stop-color="#64748B"/>
</linearGradient>
<linearGradient id="paint5_linear_121_1095" x1="6.79438" y1="6.40527" x2="8.85526" y2="10.4229" gradientUnits="userSpaceOnUse">
<stop offset="0.173077" stop-color="#FDFDFD"/>
<stop offset="1" stop-color="#64748B"/>
</linearGradient>
</defs>
</svg>
