<svg width="22" height="31" viewBox="0 0 22 31" fill="none" xmlns="http://www.w3.org/2000/svg">
<path d="M3.28125 18.5938C2.41101 18.5938 1.57641 18.9395 0.961056 19.5548C0.345702 20.1702 0 21.0048 0 21.875V22.6406C0 25.4953 1.3125 27.5625 3.39937 28.8597C5.42281 30.1175 8.11563 30.625 10.9375 30.625C13.7747 30.625 16.4675 30.1197 18.4887 28.8597C20.5756 27.5625 21.875 25.4909 21.875 22.6406V21.875C21.875 21.0048 21.5293 20.1702 20.9139 19.5548C20.2986 18.9395 19.464 18.5938 18.5938 18.5938H3.28125Z" fill="url(#paint0_radial_118_26)"/>
<path d="M3.28125 18.5938C2.41101 18.5938 1.57641 18.9395 0.961056 19.5548C0.345702 20.1702 0 21.0048 0 21.875V22.6406C0 25.4953 1.3125 27.5625 3.39937 28.8597C5.42281 30.1175 8.11563 30.625 10.9375 30.625C13.7747 30.625 16.4675 30.1197 18.4887 28.8597C20.5756 27.5625 21.875 25.4909 21.875 22.6406V21.875C21.875 21.0048 21.5293 20.1702 20.9139 19.5548C20.2986 18.9395 19.464 18.5938 18.5938 18.5938H3.28125Z" fill="url(#paint1_linear_118_26)"/>
<path d="M12.0312 1.09375C12.0312 0.803669 11.916 0.52547 11.7109 0.320352C11.5058 0.115234 11.2276 0 10.9375 0C10.6474 0 10.3692 0.115234 10.1641 0.320352C9.95898 0.52547 9.84375 0.803669 9.84375 1.09375V3.28125H12.0312V1.09375Z" fill="url(#paint2_linear_118_26)"/>
<path d="M16.4062 2.1875C17.2765 2.1875 18.1111 2.5332 18.7264 3.14856C19.3418 3.76391 19.6875 4.59851 19.6875 5.46875V12.0312C19.6875 12.9015 19.3418 13.7361 18.7264 14.3514C18.1111 14.9668 17.2765 15.3125 16.4062 15.3125H5.46875C4.59851 15.3125 3.76391 14.9668 3.14856 14.3514C2.5332 13.7361 2.1875 12.9015 2.1875 12.0312V5.46875C2.1875 4.59851 2.5332 3.76391 3.14856 3.14856C3.76391 2.5332 4.59851 2.1875 5.46875 2.1875H16.4062Z" fill="url(#paint3_radial_118_26)"/>
<path d="M14.2188 7.10938C13.7836 7.10938 13.3663 7.28223 13.0587 7.5899C12.751 7.89758 12.5781 8.31488 12.5781 8.75C12.5781 9.18512 12.751 9.60242 13.0587 9.9101C13.3663 10.2178 13.7836 10.3906 14.2188 10.3906C14.6539 10.3906 15.0712 10.2178 15.3788 9.9101C15.6865 9.60242 15.8594 9.18512 15.8594 8.75C15.8594 8.31488 15.6865 7.89758 15.3788 7.5899C15.0712 7.28223 14.6539 7.10938 14.2188 7.10938Z" fill="url(#paint4_linear_118_26)"/>
<path d="M6.01562 8.75C6.01562 8.31488 6.18848 7.89758 6.49615 7.5899C6.80383 7.28223 7.22113 7.10938 7.65625 7.10938C8.09137 7.10938 8.50867 7.28223 8.81635 7.5899C9.12402 7.89758 9.29688 8.31488 9.29688 8.75C9.29688 9.18512 9.12402 9.60242 8.81635 9.9101C8.50867 10.2178 8.09137 10.3906 7.65625 10.3906C7.22113 10.3906 6.80383 10.2178 6.49615 9.9101C6.18848 9.60242 6.01563 9.18512 6.01562 8.75Z" fill="url(#paint5_linear_118_26)"/>
<defs>
<radialGradient id="paint0_radial_118_26" cx="0" cy="0" r="1" gradientUnits="userSpaceOnUse" gradientTransform="translate(-5.04831 14.8906) rotate(32.84) scale(31.2305 51.9225)">
<stop stop-color="#A7B2C5"/>
<stop offset="1" stop-color="#51565F"/>
</radialGradient>
<linearGradient id="paint1_linear_118_26" x1="10.9375" y1="17.1609" x2="16.8416" y2="37.2181" gradientUnits="userSpaceOnUse">
<stop stop-color="#94A3B8"/>
<stop offset="1" stop-color="#51565F"/>
</linearGradient>
<linearGradient id="paint2_linear_118_26" x1="9.79344" y1="-1.37615e-08" x2="12.1012" y2="2.68844" gradientUnits="userSpaceOnUse">
<stop stop-color="#94A3B8"/>
<stop offset="0.716346" stop-color="#51565F"/>
</linearGradient>
<radialGradient id="paint3_radial_118_26" cx="0" cy="0" r="1" gradientUnits="userSpaceOnUse" gradientTransform="translate(-1.70584 -4.00314) rotate(45) scale(29.4814 57.5487)">
<stop stop-color="#2A3446"/>
<stop offset="0.535" stop-color="#94A3B8"/>
<stop offset="1" stop-color="#51565F"/>
</radialGradient>
<linearGradient id="paint4_linear_118_26" x1="13.3569" y1="7.23625" x2="15.8441" y2="11.5281" gradientUnits="userSpaceOnUse">
<stop offset="0.173077" stop-color="#FDFDFD"/>
<stop offset="1" stop-color="#64748B"/>
</linearGradient>
<linearGradient id="paint5_linear_118_26" x1="6.79438" y1="7.23625" x2="9.28156" y2="11.5281" gradientUnits="userSpaceOnUse">
<stop offset="0.173077" stop-color="#FDFDFD"/>
<stop offset="1" stop-color="#64748B"/>
</linearGradient>
</defs>
</svg>
