<svg width="24" height="24" viewBox="0 0 24 24" fill="none" xmlns="http://www.w3.org/2000/svg">
<path d="M22.3805 0.221672C21.5443 0.0770867 20.6974 0.00293761 19.8488 5.07529e-06C16.9536 -0.00236849 14.1187 0.827841 11.6821 2.39167C9.23932 0.848374 6.40491 0.038541 3.51548 0.0583384C2.66688 0.0612709 1.82001 0.13542 0.983813 0.280005C0.709887 0.32723 0.461824 0.470707 0.284295 0.684597C0.106766 0.898487 0.0114386 1.16873 0.0154796 1.44667V15.4467C0.012981 15.6181 0.0482935 15.788 0.118905 15.9442C0.189516 16.1004 0.29369 16.2392 0.424015 16.3505C0.55434 16.4619 0.707613 16.5432 0.872928 16.5887C1.03824 16.6341 1.21154 16.6425 1.38048 16.6133C3.05234 16.3239 4.76521 16.3719 6.41822 16.7546C8.07123 17.1373 9.63094 17.8469 11.0055 18.8417L11.1455 18.9233H11.2738C11.403 18.9779 11.5419 19.006 11.6821 19.006C11.8224 19.006 11.9613 18.9779 12.0905 18.9233H12.2188L12.3588 18.8417C13.7238 17.8247 15.279 17.0921 16.9323 16.6873C18.5856 16.2824 20.3034 16.2137 21.9838 16.485C22.1528 16.5142 22.326 16.5057 22.4914 16.4603C22.6567 16.4149 22.8099 16.3336 22.9403 16.2222C23.0706 16.1108 23.1748 15.9721 23.2454 15.8159C23.316 15.6596 23.3513 15.4898 23.3488 15.3183V1.31834C23.3367 1.05252 23.234 0.798834 23.0579 0.599366C22.8818 0.399898 22.6427 0.266631 22.3805 0.221672ZM10.5155 15.7267C8.35651 14.5925 5.95425 13.9999 3.51548 14H2.34881V2.33334C2.7374 2.31172 3.12689 2.31172 3.51548 2.33334C6.00443 2.33059 8.43906 3.06098 10.5155 4.43334V15.7267ZM21.0155 14.0467H19.8488C17.41 14.0466 15.0078 14.6391 12.8488 15.7733V4.43334C14.9252 3.06098 17.3599 2.33059 19.8488 2.33334C20.2374 2.31172 20.6269 2.31172 21.0155 2.33334V14.0467ZM22.3805 18.8883C21.5443 18.7438 20.6974 18.6696 19.8488 18.6667C16.9536 18.6643 14.1187 19.4945 11.6821 21.0583C9.24558 19.4945 6.41072 18.6643 3.51548 18.6667C2.66688 18.6696 1.82001 18.7438 0.983813 18.8883C0.831945 18.9124 0.686339 18.9663 0.555369 19.0469C0.424399 19.1275 0.310648 19.2331 0.220657 19.3578C0.130667 19.4825 0.0662126 19.6237 0.0310007 19.7734C-0.00421128 19.9231 -0.00948604 20.0783 0.0154796 20.23C0.0747681 20.533 0.251718 20.8001 0.507568 20.9728C0.763418 21.1456 1.07731 21.2099 1.38048 21.1517C3.05234 20.8622 4.76521 20.9102 6.41822 21.2929C8.07123 21.6756 9.63094 22.3853 11.0055 23.38C11.2031 23.5207 11.4396 23.5963 11.6821 23.5963C11.9247 23.5963 12.1612 23.5207 12.3588 23.38C13.7334 22.3853 15.2931 21.6756 16.9461 21.2929C18.5991 20.9102 20.312 20.8622 21.9838 21.1517C22.287 21.2099 22.6009 21.1456 22.8567 20.9728C23.1126 20.8001 23.2895 20.533 23.3488 20.23C23.3738 20.0783 23.3685 19.9231 23.3333 19.7734C23.2981 19.6237 23.2336 19.4825 23.1436 19.3578C23.0536 19.2331 22.9399 19.1275 22.8089 19.0469C22.678 18.9663 22.5323 18.9124 22.3805 18.8883Z" fill="#51565F"/>
</svg>
