<svg width="20" height="20" viewBox="0 0 20 20" fill="none" xmlns="http://www.w3.org/2000/svg">
<g clip-path="url(#clip0_39_179)">
<path d="M6.63404 0.626417C4.73127 1.28651 3.09032 2.53938 1.95223 4.201C0.814134 5.86263 0.238881 7.84543 0.310967 9.85815C0.383052 11.8709 1.09868 13.8074 2.35272 15.3834C3.60677 16.9593 5.33314 18.0916 7.27826 18.6139C8.85521 19.0208 10.5074 19.0387 12.0928 18.666C13.529 18.3434 14.8568 17.6533 15.9462 16.6634C17.08 15.6016 17.903 14.2509 18.3266 12.7564C18.7871 11.1313 18.8691 9.42218 18.5662 7.76041H9.71081V11.4338H14.8392C14.7368 12.0197 14.5171 12.5788 14.1935 13.0778C13.8698 13.5769 13.4488 14.0054 12.9557 14.338C12.3295 14.7522 11.6235 15.0309 10.8832 15.1562C10.1407 15.2943 9.37911 15.2943 8.63662 15.1562C7.88407 15.0007 7.17218 14.6901 6.54626 14.2442C5.54073 13.5324 4.78572 12.5212 4.38896 11.3549C3.98549 10.1668 3.98549 8.87864 4.38896 7.69048C4.67138 6.85764 5.13826 6.09933 5.75476 5.47217C6.46026 4.74129 7.35344 4.21885 8.33632 3.96217C9.31919 3.7055 10.3538 3.7245 11.3266 4.01711C12.0865 4.25038 12.7814 4.65796 13.3559 5.20735C13.9342 4.63206 14.5114 4.05529 15.0877 3.47704C15.3853 3.16609 15.7096 2.87002 16.0027 2.55163C15.1257 1.73554 14.0964 1.10051 12.9735 0.682953C10.9289 -0.0594727 8.69163 -0.0794247 6.63404 0.626417Z" fill="white"/>
<path d="M6.63412 0.626408C8.69155 -0.0799138 10.9288 -0.060487 12.9736 0.681456C14.0966 1.10185 15.1256 1.73993 16.0013 2.55906C15.7037 2.87745 15.3898 3.17501 15.0863 3.48447C14.509 4.06074 13.9323 4.63503 13.356 5.20734C12.7815 4.65795 12.0866 4.25037 11.3266 4.0171C10.3542 3.72347 9.31963 3.70336 8.33649 3.95899C7.35336 4.21461 6.45962 4.73609 5.75335 5.46621C5.13685 6.09337 4.66997 6.85168 4.38755 7.68452L1.30334 5.2966C2.4073 3.1074 4.31874 1.43283 6.63412 0.626408Z" fill="#E33629"/>
<path d="M0.48502 7.66211C0.650792 6.84054 0.926008 6.04491 1.30331 5.29651L4.38751 7.69038C3.98404 8.87854 3.98404 10.1667 4.38751 11.3548C3.35994 12.1483 2.33187 12.9458 1.30331 13.7472C0.358781 11.8671 0.0707167 9.72494 0.48502 7.66211Z" fill="#F8BD00"/>
<path d="M9.71087 7.75891H18.5662C18.8691 9.42068 18.7872 11.1298 18.3267 12.7549C17.903 14.2494 17.08 15.6001 15.9462 16.6619C14.9509 15.8853 13.9511 15.1146 12.9558 14.338C13.4492 14.0051 13.8704 13.576 14.1941 13.0765C14.5177 12.577 14.7372 12.0172 14.8393 11.4308H9.71087C9.70938 10.2078 9.71087 8.98337 9.71087 7.75891Z" fill="#587DBD"/>
<path d="M1.30188 13.7472C2.33044 12.9537 3.35851 12.1563 4.38608 11.3549C4.78364 12.5216 5.53973 13.5328 6.54637 14.2442C7.17423 14.6879 7.88766 14.996 8.64119 15.1487C9.38368 15.2868 10.1453 15.2868 10.8878 15.1487C11.6281 15.0234 12.334 14.7447 12.9603 14.3305C13.9556 15.1071 14.9554 15.8778 15.9507 16.6544C14.8615 17.6449 13.5337 18.3354 12.0973 18.6585C10.512 19.0312 8.85978 19.0133 7.28283 18.6064C6.03561 18.2734 4.87062 17.6863 3.86089 16.882C2.79215 16.0335 1.91925 14.9642 1.30188 13.7472Z" fill="#319F43"/>
</g>
<defs>
<clipPath id="clip0_39_179">
<rect width="19.0438" height="19.0438" fill="white"/>
</clipPath>
</defs>
</svg>
