<svg width="26" height="28" viewBox="0 0 26 28" fill="none" xmlns="http://www.w3.org/2000/svg">
<path d="M3.25 24.3259H8.125V16.4789C8.125 16.0342 8.281 15.6617 8.593 15.3614C8.905 15.0612 9.29066 14.9105 9.75 14.9095H16.25C16.7104 14.9095 17.0966 15.0601 17.4086 15.3614C17.7206 15.6628 17.8761 16.0352 17.875 16.4789V24.3259H22.75V10.2012L13 3.13883L3.25 10.2012V24.3259ZM0 24.3259V10.2012C0 9.70422 0.115375 9.2334 0.346125 8.78873C0.576874 8.34406 0.894833 7.97786 1.3 7.69014L11.05 0.627767C11.6187 0.209256 12.2687 0 13 0C13.7312 0 14.3812 0.209256 14.95 0.627767L24.7 7.69014C25.1062 7.97786 25.4247 8.34406 25.6555 8.78873C25.8862 9.2334 26.0011 9.70422 26 10.2012V24.3259C26 25.1891 25.6815 25.9283 25.0445 26.5435C24.4075 27.1587 23.6427 27.4658 22.75 27.4648H16.25C15.7896 27.4648 15.4039 27.3141 15.093 27.0128C14.7821 26.7115 14.6261 26.339 14.625 25.8954V18.0483H11.375V25.8954C11.375 26.34 11.219 26.713 10.907 27.0144C10.595 27.3157 10.2093 27.4658 9.75 27.4648H3.25C2.35625 27.4648 1.59142 27.1577 0.955499 26.5435C0.319583 25.9294 0.00108333 25.1902 0 24.3259Z" fill="#608DBC"/>
</svg>
