<svg width="23" height="23" viewBox="0 0 23 23" fill="none" xmlns="http://www.w3.org/2000/svg">
<path d="M20.3961 12.098L21.9258 13.4601C22.2083 13.6958 22.397 14.0249 22.4578 14.3877C22.5187 14.7506 22.4476 15.1232 22.2574 15.4381L20.413 18.5888C20.27 18.83 20.0656 19.0291 19.8208 19.1658C19.5731 19.3029 19.295 19.3756 19.012 19.3773C18.8364 19.3784 18.6617 19.3522 18.4942 19.2995L16.5365 18.6531C16.1935 18.8731 15.8371 19.0699 15.4671 19.2437L15.0559 21.2285C14.9798 21.5936 14.7765 21.9198 14.4823 22.149C14.1843 22.3822 13.8149 22.5054 13.4366 22.4976H9.6175C9.23917 22.5054 8.86975 22.3822 8.57178 22.149C8.27817 21.9195 8.0755 21.5934 7.99986 21.2285L7.58699 19.2437C7.22183 19.0676 6.86755 18.8698 6.52604 18.6514L4.56153 19.2995C4.39402 19.3522 4.21933 19.3784 4.04375 19.3773C3.76126 19.3753 3.48379 19.3026 3.23662 19.1658C2.99201 19.0295 2.78771 18.8311 2.64438 18.5905L0.734012 15.4381C0.535408 15.1203 0.459522 14.741 0.520576 14.3713C0.58163 14.0015 0.775433 13.6667 1.06566 13.4296L2.59362 11.499V10.9L1.06397 9.53782C0.781497 9.3021 0.592758 8.97303 0.531922 8.61019C0.471087 8.24735 0.542176 7.87472 0.73232 7.55976L2.64269 4.40909C2.78579 4.16791 2.9901 3.96884 3.23492 3.83208C3.48209 3.69531 3.75957 3.6226 4.04205 3.62057C4.21606 3.60959 4.39071 3.62557 4.55983 3.66795L6.48543 4.34479C6.82949 4.12481 7.18596 3.92797 7.55484 3.75425L7.96771 1.76942C8.04335 1.40455 8.24602 1.07836 8.53963 0.848923C8.8376 0.615661 9.20702 0.492522 9.58535 0.500352H13.3723C13.7506 0.492522 14.12 0.615661 14.418 0.848923C14.7141 1.08074 14.9171 1.40731 14.9899 1.76942L15.4028 3.75425C15.7694 3.9291 16.123 4.12651 16.4637 4.34648L18.4299 3.7001C18.6481 3.62911 18.8787 3.60419 19.1071 3.6269C19.3354 3.64962 19.5566 3.71949 19.7565 3.83208C20.0019 3.97083 20.2049 4.1705 20.3487 4.40739L22.2574 7.55976C22.4587 7.87487 22.5385 8.25244 22.4818 8.62203C22.4251 8.99161 22.2359 9.32795 21.9495 9.56828L20.3961 10.8915V12.098Z" stroke="#9E4F4F"/>
<path d="M15.7295 11.499C15.7295 12.621 15.2838 13.6969 14.4905 14.4903C13.6972 15.2836 12.6212 15.7293 11.4993 15.7293C10.3773 15.7293 9.30137 15.2836 8.50805 14.4903C7.71473 13.6969 7.26904 12.621 7.26904 11.499C7.26904 10.3771 7.71473 9.30113 8.50805 8.5078C9.30137 7.71448 10.3773 7.2688 11.4993 7.2688C12.6212 7.2688 13.6972 7.71448 14.4905 8.5078C15.2838 9.30113 15.7295 10.3771 15.7295 11.499Z" stroke="#9E4F4F"/>
</svg>
