<svg width="70" height="71" viewBox="0 0 70 71" fill="none" xmlns="http://www.w3.org/2000/svg">
<path d="M45.3406 5.17001C29.0733 -0.886708 10.9919 7.73291 5.10802 24.3034C-0.865277 41.092 7.57118 59.5243 23.8384 65.5751C40.1489 71.6289 58.3226 63.0122 64.2469 46.3975C70.1798 29.6944 61.7376 11.2267 45.43 5.17001H45.3406ZM34.6111 70.7009C15.575 70.7009 0 54.7932 0 35.3505C0 15.9077 15.575 0 34.6111 0C53.6472 0 69.2222 15.9077 69.2222 35.3505C69.2222 54.7932 53.6472 70.7009 34.6111 70.7009ZM25.7449 17.1008V53.6031L56.7622 35.3505L25.7449 17.1008ZM28.7705 22.312L50.8351 35.3505L28.7705 48.3889V22.312ZM18.6006 21.0777V49.6203L42.8313 35.3505L18.6006 21.0777ZM21.6319 26.3803L36.9502 35.3505L21.6319 44.3678V26.3332" fill="#8F9DB6"/>
</svg>
