<svg width="32" height="32" viewBox="0 0 32 32" fill="none" xmlns="http://www.w3.org/2000/svg">
<rect width="32" height="32" rx="16" fill="#B6AF28" fill-opacity="0.1"/>
<path fill-rule="evenodd" clip-rule="evenodd" d="M14.416 5.92803C14.8107 5.69859 15.2501 5.55743 15.7042 5.5142C16.1582 5.47098 16.6162 5.5267 17.0468 5.67756C17.4775 5.82842 17.8706 6.07086 18.1993 6.38832C18.5281 6.70578 18.7847 7.09077 18.9516 7.51698C19.1186 7.94319 19.192 8.40058 19.1667 8.85788C19.1415 9.31518 19.0182 9.76162 18.8053 10.1667C18.5925 10.5717 18.295 10.9259 17.9334 11.2049C17.5717 11.4839 17.1543 11.6812 16.7097 11.7833V13.6719H18.8387C19.0269 13.6719 19.2074 13.747 19.3405 13.8807C19.4736 14.0143 19.5484 14.1956 19.5484 14.3846C19.5484 14.5736 19.4736 14.7549 19.3405 14.8885C19.2074 15.0222 19.0269 15.0973 18.8387 15.0973H16.7097V24.7885L17.2668 24.5961C19.6797 23.7622 21.7683 22.1836 23.2341 20.086H22.7419C22.6153 20.086 22.4909 20.0519 22.3817 19.9874C22.2726 19.9228 22.1826 19.8301 22.1212 19.7188C22.0598 19.6075 22.0292 19.4818 22.0325 19.3546C22.0358 19.2274 22.073 19.1035 22.1401 18.9956L23.9143 16.1449C23.9781 16.0424 24.0668 15.9579 24.1721 15.8993C24.2774 15.8407 24.3958 15.8099 24.5161 15.8099C24.6365 15.8099 24.7549 15.8407 24.8602 15.8993C24.9654 15.9579 25.0541 16.0424 25.1179 16.1449L26.8921 18.9956C26.9593 19.1035 26.9964 19.2274 26.9998 19.3546C27.0031 19.4818 26.9724 19.6075 26.911 19.7188C26.8496 19.8301 26.7597 19.9228 26.6505 19.9874C26.5414 20.0519 26.417 20.086 26.2903 20.086H24.9253C23.2882 22.8289 20.7395 24.9035 17.7284 25.9441L16.231 26.4612C16.0813 26.5129 15.9187 26.5129 15.769 26.4612L14.2716 25.9438C11.2604 24.9033 8.71158 22.8289 7.07439 20.086H5.70968C5.583 20.086 5.45863 20.0519 5.34948 19.9874C5.24032 19.9228 5.15037 19.8301 5.08896 19.7188C5.02755 19.6075 4.99692 19.4818 5.00024 19.3546C5.00357 19.2274 5.04073 19.1035 5.10787 18.9956L6.88207 16.1449C6.94586 16.0424 7.03457 15.9579 7.13984 15.8993C7.24512 15.8407 7.36351 15.8099 7.48387 15.8099C7.60424 15.8099 7.72263 15.8407 7.8279 15.8993C7.93318 15.9579 8.02189 16.0424 8.08568 16.1449L9.85987 18.9956C9.92701 19.1035 9.96418 19.2274 9.9675 19.3546C9.97083 19.4818 9.94019 19.6075 9.87878 19.7188C9.81737 19.8301 9.72742 19.9228 9.61827 19.9874C9.50912 20.0519 9.38475 20.086 9.25807 20.086H8.76555C10.2314 22.1837 12.3202 23.7623 14.7332 24.5961L15.2903 24.7885V15.0973H13.1613C12.9731 15.0973 12.7926 15.0222 12.6595 14.8885C12.5264 14.7549 12.4516 14.5736 12.4516 14.3846C12.4516 14.1956 12.5264 14.0143 12.6595 13.8807C12.7926 13.747 12.9731 13.6719 13.1613 13.6719H15.2903V11.7837C14.6701 11.6406 14.1072 11.3133 13.6749 10.8444C13.2426 10.3755 12.9609 9.78676 12.8666 9.1548C12.7722 8.52285 12.8696 7.877 13.1459 7.30139C13.4223 6.72579 13.8649 6.24745 14.416 5.92803ZM16.8743 7.16202C16.6754 7.04672 16.4559 6.97189 16.2282 6.94179C16.0005 6.9117 15.7692 6.92693 15.5474 6.98662C15.3255 7.04631 15.1176 7.1493 14.9354 7.28969C14.7532 7.43008 14.6004 7.60514 14.4855 7.80486C14.3707 8.00458 14.2962 8.22505 14.2662 8.45369C14.2363 8.68233 14.2514 8.91466 14.3109 9.13742C14.3703 9.36017 14.4729 9.56899 14.6127 9.75194C14.7525 9.9349 14.9268 10.0884 15.1257 10.2037C15.5273 10.4366 16.0047 10.4997 16.4526 10.3791C16.9006 10.2586 17.2826 9.96423 17.5145 9.56088C17.7463 9.15753 17.8092 8.67819 17.6891 8.22832C17.5691 7.77845 17.276 7.39489 16.8743 7.16202ZM24.5296 18.6606H25.0097L24.5161 17.8674L24.0222 18.6606H24.5296ZM7.47039 18.6606H7.97781L7.48387 17.8674L6.98994 18.6606H7.47039Z" fill="black" fill-opacity="0.25" stroke="#E6A712" stroke-width="0.25" stroke-linecap="round" stroke-linejoin="round"/>
</svg>
