<svg width="26" height="26" viewBox="0 0 26 26" fill="none" xmlns="http://www.w3.org/2000/svg">
<path d="M13 13.9286C20.15 13.9286 26 18.5714 26 22.2857C26 23.2708 25.6087 24.2155 24.9121 24.9121C24.2155 25.6087 23.2708 26 22.2857 26H3.71429C2.7292 26 1.78445 25.6087 1.08789 24.9121C0.391325 24.2155 0 23.2708 0 22.2857C0 18.5714 5.85 13.9286 13 13.9286ZM13 16.7143C10.01 16.7143 7.30971 17.6911 5.40057 19.006C3.33914 20.4304 2.78571 21.7899 2.78571 22.2857C2.78571 22.532 2.88355 22.7682 3.05769 22.9423C3.23183 23.1165 3.46801 23.2143 3.71429 23.2143H22.2857C22.532 23.2143 22.7682 23.1165 22.9423 22.9423C23.1165 22.7682 23.2143 22.532 23.2143 22.2857C23.2143 21.7899 22.6627 20.4286 20.5994 19.006C18.6903 17.6911 15.9881 16.7143 13 16.7143ZM13 0C14.7239 0 16.3772 0.684819 17.5962 1.90381C18.8152 3.12279 19.5 4.77609 19.5 6.5C19.5 8.22391 18.8152 9.87721 17.5962 11.0962C16.3772 12.3152 14.7239 13 13 13C11.2761 13 9.62279 12.3152 8.40381 11.0962C7.18482 9.87721 6.5 8.22391 6.5 6.5C6.5 4.77609 7.18482 3.12279 8.40381 1.90381C9.62279 0.684819 11.2761 0 13 0ZM13 2.78571C12.0149 2.78571 11.0702 3.17704 10.3736 3.8736C9.67704 4.57017 9.28572 5.51491 9.28572 6.5C9.28572 7.48509 9.67704 8.42983 10.3736 9.1264C11.0702 9.82296 12.0149 10.2143 13 10.2143C13.9851 10.2143 14.9298 9.82296 15.6264 9.1264C16.323 8.42983 16.7143 7.48509 16.7143 6.5C16.7143 5.51491 16.323 4.57017 15.6264 3.8736C14.9298 3.17704 13.9851 2.78571 13 2.78571Z" fill="#51565F"/>
</svg>
