<svg width="18" height="16" viewBox="0 0 18 16" fill="none" xmlns="http://www.w3.org/2000/svg">
<path d="M5.87231 2.80161C6.83531 2.47021 7.87819 2.28623 8.99981 2.28623C12.8946 2.28623 15.8556 4.52031 17.8041 7.35206C17.9317 7.54325 18 7.76897 18 8C18 8.23103 17.9317 8.45675 17.8041 8.64794C16.9716 9.85926 15.9523 10.9609 14.7553 11.8248L13.9397 10.9974C15.0973 10.1975 16.0783 9.14847 16.8692 7.98971C15.1176 5.44709 12.4423 3.42898 8.99981 3.42898C8.24971 3.42745 7.50267 3.5262 6.77794 3.72267L5.87231 2.80161ZM7.82419 4.78543C8.43018 4.55634 9.0882 4.50889 9.71997 4.64873C10.3517 4.78856 10.9307 5.10981 11.3879 5.57424C11.8451 6.03867 12.1614 6.62673 12.299 7.26848C12.4367 7.91022 12.39 8.57863 12.1644 9.19418L11.2363 8.25141C11.2734 7.91087 11.2347 7.56621 11.123 7.24292C11.0113 6.91963 10.8295 6.62599 10.591 6.38373C10.3525 6.14146 10.0634 5.95676 9.74513 5.84329C9.42687 5.72982 9.08756 5.69049 8.75231 5.7282L7.82419 4.78543ZM6.76331 7.74859L5.83519 6.80582C5.60965 7.42137 5.56294 8.08978 5.7006 8.73152C5.83827 9.37327 6.15452 9.96133 6.61174 10.4258C7.06895 10.8902 7.64788 11.2114 8.27965 11.3513C8.91143 11.4911 9.56945 11.4437 10.1754 11.2146L9.24731 10.2718C8.91206 10.3095 8.57276 10.2702 8.25449 10.1567C7.93623 10.0432 7.64715 9.85854 7.40865 9.61627C7.17014 9.374 6.98831 9.08037 6.87661 8.75708C6.7649 8.43379 6.72618 8.08913 6.76331 7.74859ZM11.2217 12.2773C10.497 12.4738 9.74991 12.5725 8.99981 12.571C5.55506 12.571 2.87756 10.5495 1.13269 8.01486C1.92244 6.85382 2.90344 5.80363 4.06106 5.00256L3.24431 4.17406C2.04731 5.04027 1.02806 6.1396 0.194439 7.35091C0.0665402 7.54466 -0.00118761 7.77293 1.57618e-05 8.00619C0.00121913 8.23946 0.0712983 8.467 0.201189 8.65937C2.14294 11.4797 5.10394 13.7138 8.99981 13.7138C10.0639 13.7176 11.1214 13.5431 12.1296 13.1972L11.2217 12.2773ZM2.08556 0.167563C2.03326 0.114439 1.97118 0.072299 1.90284 0.0435476C1.83451 0.0147972 1.76128 0 1.68731 0C1.61335 0 1.54011 0.0147972 1.47178 0.0435476C1.40345 0.072299 1.34136 0.114439 1.28906 0.167563C1.23676 0.220688 1.19528 0.283755 1.16698 0.353166C1.13867 0.422576 1.1241 0.496969 1.1241 0.572099C1.1241 0.647227 1.13867 0.721622 1.16698 0.791032C1.19528 0.860442 1.23676 0.92351 1.28906 0.976633L15.9141 15.8324C16.0197 15.9397 16.1629 16 16.3123 16C16.4617 16 16.6049 15.9397 16.7106 15.8324C16.8162 15.7251 16.8755 15.5796 16.8755 15.4279C16.8755 15.2762 16.8162 15.1307 16.7106 15.0234L2.08556 0.167563Z" fill="#A7B3C5"/>
</svg>
