<svg width="22" height="14" viewBox="0 0 22 14" fill="none" xmlns="http://www.w3.org/2000/svg">
<path d="M10.7917 12.5C14.9583 12.5 18.5625 10.1875 20.4167 6.77083C18.5625 3.35417 14.9583 1.04167 10.7917 1.04167C6.625 1.04167 3.02083 3.35417 1.16667 6.77083C3.02083 10.1875 6.625 12.5 10.7917 12.5ZM10.7917 0C15.5417 0 19.6458 2.76042 21.5833 6.77083C19.6458 10.7813 15.5417 13.5417 10.7917 13.5417C6.04167 13.5417 1.9375 10.7813 0 6.77083C1.9375 2.76042 6.04167 0 10.7917 0ZM10.7917 2.08333C13.3958 2.08333 15.4792 4.16667 15.4792 6.77083C15.4792 9.375 13.3958 11.4583 10.7917 11.4583C8.1875 11.4583 6.10417 9.375 6.10417 6.77083C6.10417 4.16667 8.1875 2.08333 10.7917 2.08333ZM10.7917 3.125C9.82473 3.125 8.8974 3.50911 8.21367 4.19284C7.52995 4.87657 7.14583 5.8039 7.14583 6.77083C7.14583 7.73777 7.52995 8.6651 8.21367 9.34883C8.8974 10.0326 9.82473 10.4167 10.7917 10.4167C11.7586 10.4167 12.6859 10.0326 13.3697 9.34883C14.0534 8.6651 14.4375 7.73777 14.4375 6.77083C14.4375 5.8039 14.0534 4.87657 13.3697 4.19284C12.6859 3.50911 11.7586 3.125 10.7917 3.125Z" fill="#94A3B8"/>
</svg>
